<svg id="e3FQIAstgja1" xmlns="http://www.w3.org/2000/svg" xmlns:xlink="http://www.w3.org/1999/xlink" viewBox="0 0 300 146" shape-rendering="geometricPrecision" text-rendering="geometricPrecision"><defs><linearGradient id="e3FQIAstgja3-stroke" x1="0" y1="0.5" x2="1" y2="0.5" spreadMethod="pad" gradientUnits="objectBoundingBox" gradientTransform="translate(0 0)"><stop id="e3FQIAstgja3-stroke-0" offset="0%" stop-color="#000"/><stop id="e3FQIAstgja3-stroke-1" offset="100%" stop-color="#fff"/></linearGradient></defs><g transform="matrix(.1 0 0-.1-4.088677 161.673279)"><path d="M900,1377c-14-7-26-23-28-37s-8-30-13-36c-15-19-117-229-124-256-5-21-2-29,15-38c29-15,64,2,80,39c24,56,34,63,79,51c29-8,52-24,82-60c43-51,80-65,105-40c8,8,19,7,37-1c23-10,30-9,47,6c16,15,20,31,20,84c0,99,13,105,40,19c12-40,29-83,37-95c16-26,59-31,88-9c13,10,25,10,45,3c38-15,56-5,91,53c33,53,32,53,95,29c12-4,41-30,64-58c47-55,58-59,95-35c19,12,27,13,43,3c26-16,72,2,72,28c1,43,15,44,72,3c64-45,87-49,114-19c21,24,25,19-100,119-31,25-56,48-56,51c0,4,32,35,70,69c80,71,97,95,80,115-13,15-54,25-81,18-35-9-20-22,30-25l49-3-99-85c-54-47-99-87-98-90c1-9,169-140,179-140c6,0,10-7,10-15c0-28-28-15-108,50-44,36-81,65-83,65s-2-29-1-65l4-65h-31-31v163c0,113-4,167-12,175-9,9-2,12,31,12h43l-4-70c-2-39-2-70,0-70c11,0,122,105,122,115c0,7-9,15-19,18-14,3-21-2-25-17-3-11-15-27-27-34-11-8-18-9-14-3c3,6,2,11-4,11-5,0-11,12-13,27-3,32-40,50-80,40-24-6-24-8-24-118c1-61-2-113-5-115-4-2-24,44-44,102-49,136-81,164-152,132-27-13-26-13,26-18l54-5l47-135c26-74,50-152,54-172c6-35,5-38-17-38-17,0-28,10-40,35-19,41-55,66-105,74-19,3-37,12-39,18-5,14,36,9,100-13c20-7,37-12,37-11s-17,46-38,100l-39,99-55-109c-93-179-100-190-124-184-19,6-14,17,66,161c48,85,85,158,83,163-10,18-31,4-46-30-29-68-117-228-123-225-4,1-6,46-6,100c1,114-10,171-34,189-26,19-39,16-72-17l-31-30-21,27c-18,23-28,27-69,26-27,0-57-6-67-12-15-8-6-10,43-11c72,0,67,7,134-159l39-96-1,60c0,33-3,90-8,128l-7,67h27c27,0,27-2,34-75c4-41,4-118,0-170l-7-95h-31c-31,0-32,2-49,73-10,39-37,110-60,157l-43,85-5-160c-4-143-7-160-22-161-16-2-18,12-18,156c0,129-3,160-15,170-21,17-27,8-17-21c4-13,8-31,7-39s-3-42-3-75c-1-36-6-55-11-50-5,6-26,53-46,105s-41,100-48,106c-20,19-70,25-97,11Zm83-34c3-10,24-69,46-132c46-126,62-189,52-196-14-8-51,7-51,22c0,26-56,72-104,84-25,6-49,15-52,20-9,15,37,10,94-10c47-16,52-17,46-2-4,9-21,53-38,98-30,81-41,97-48,70-2-8-34-73-73-145-58-110-73-132-92-132-13,0-23,2-23,4s38,73,85,157c78,140,84,155,68,166-14,11-9,13,34,13c40,0,52-4,56-17Zm-32-151c7-19,5-22-16-22-26,0-29,7-19,35c8,21,25,15,35-13Zm669-13c0-20-24-26-35-9-4,6-4,17-1,25c7,20,36,7,36-16Z" fill="#eecb74" stroke="url(#e3FQIAstgja3-stroke)"/><path d="M2105,1364c-20-20-13-98,16-178c25-67,25-118-1-141-11-10-20-23-20-29c0-8,3-8,8,0c4,7,16,13,27,16c18,3,20,11,19,73-1,43-9,94-23,132-11,34-21,76-21,93c0,30,0,30,56,30h55l-7-47c-3-27-15-69-26-94-14-34-18-64-16-115c3-69,3-69,33-72s30-3,9,15c-33,28-35,48-13,116c26,79,39,177,27,200s-100,24-123,1Z" fill="#eecb74"/><path d="M2130,1326c0-15,6-17,30-14c34,5,39-10,15-52l-14-25-15,35c-12,27-15,30-16,14c0-12,8-32,18-44l18-23l17,36c9,19,17,48,17,64c0,27-3,29-35,29-27-1-35-5-35-20Z" fill="#eecb74" fill-rule="evenodd" stroke="#f8e0a5"/><path d="M2140,1010l-25-7l25-7c14-3,39-2,55,3c17,5,22,10,13,10-9,1-22,3-30,5-7,2-24,1-38-4Z" fill="#eecb74"/><path d="M1583,933c-17-7-34-17-38-23-3-5-11-10-16-10-6,0-8,4-5,9s-1,14-9,21c-18,15-65-1-65-22c0-27-68-85-71-60c0,4-2,20-3,36-1,15-10,34-21,42-39,29-140,9-114-22c7-9,9-29,5-55s-2-46,5-55c14-17,72-18,100-3c15,8,24,7,35-2s20-9,40,0s34,9,59,0c28-11,36-10,50,5c16,16,19,16,35,1c14-13,23-14,38-6s26,5,54-15c50-36,107-42,132-15c11,12,14,21,8,21s-14-4-17-10c-19-31-127,18-155,70-10,18-8,22,10,27c25,7,23,36-2,41-13,2-18-6-23-35-7-44-24-88-31-81-2,3,1,29,7,57c11,51,4,88-8,43-6-24-23-30-23-9c0,31,58,49,104,31c23-9,20-43-5-52-19-8-18-10,20-45c42-38,80-47,111-27c8,5,11,10,5,11-91,7-107,18-99,68c4,28,1,40-13,52-26,23-63,27-100,12Zm-82-54c-3-44,0-51,18-56c24-6,18-23-8-23-10,0-21,9-24,20s-12,20-21,20c-8,0-20-9-26-20-12-23-50-27-50-6c0,9,7,12,20,9c12-3,20,0,20,6c0,7,10,22,21,34c17,17,21,18,16,5-4-10-2-18,4-18c7,0,9,9,6,22-6,21,7,58,21,58c4,0,5-23,3-51Zm-151,26c10-12,10-19,2-27s-8-15-1-24c21-25-7-54-52-54s-43-5-22,88c4,17,2,21-11,16-9-3-16-1-16,5c0,17,85,14,100-4Z" fill="#eecb74"/><path d="M1292,868c-10-47-2-64,23-54c18,7,16,42-3,39-21-5-13,14,9,20c24,6,21,30-4,35-11,2-18-9-25-40Z" fill="#eecb74"/><path d="M2178,885c-2-3-91-5-198-6s-204-5-215-9c-11-5,91-9,233-9c161-1,252-5,252-11s-89-10-247-10c-135,0-244-2-242-4s106-7,231-10c231-7,268-3,268,29c0,8-12,17-27,21-16,3-33,7-40,9-6,2-13,2-15,0Z" fill="#eecb74"/><path d="M720,869c-14-4,86-7,223-8c157-1,247-5,247-11s-89-10-247-10c-135,0-244-2-241-5c8-8,444-18,473-11c20,5,26,12,23,29-3,22-4,22-228,23-124,1-236-2-250-7Z" fill="#eecb74"/></g></svg>
