<svg id="er4xeW93CUY1" xmlns="http://www.w3.org/2000/svg" xmlns:xlink="http://www.w3.org/1999/xlink" viewBox="0 0 300 146" shape-rendering="geometricPrecision" text-rendering="geometricPrecision"><defs><linearGradient id="er4xeW93CUY3-stroke" x1="0" y1="0.5" x2="1" y2="0.5" spreadMethod="pad" gradientUnits="objectBoundingBox" gradientTransform="translate(0 0)"><stop id="er4xeW93CUY3-stroke-0" offset="0%" stop-color="#000"/><stop id="er4xeW93CUY3-stroke-1" offset="100%" stop-color="#fff"/></linearGradient></defs><g transform="matrix(.1 0 0-.1-29.176831 186.629968)"><path d="M994.636171,1741.372703c-21.929665-13.477253-40.726521-44.282403-43.85933-71.23691s-12.531237-57.759656-20.36326-69.311588c-23.49607-36.581116-183.269343-440.898711-194.234175-492.882401-7.832023-40.431759-3.132809-55.834335,23.49607-73.162231c45.425735-28.879828,100.249897,3.850644,125.312371,75.087553c37.593711,107.818025,53.257758,121.295278,123.745967,98.191416c45.425735-15.402575,81.453041-46.207725,128.445181-115.519313c67.3554-98.191416,125.312371-125.145922,164.472487-77.012875c12.531237,15.402575,29.761688,13.477253,57.956972-1.925322c36.027307-19.253219,46.992139-17.327897,73.621018,11.551931c25.062474,28.879828,31.328093,59.684978,31.328093,161.727038c0,190.606866,20.36326,202.158797,62.656186,36.581116c18.796856-77.012875,45.425735-159.801716,57.956972-182.905579c25.062474-50.058369,92.417874-59.684978,137.843608-17.327897c20.36326,19.253219,39.160116,19.253219,70.488209,5.775966c59.523376-28.879828,87.71866-9.626609,142.542822,102.04206c51.691353,102.04206,50.124949,102.04206,148.808441,55.834335c18.796856-7.701288,64.22259-57.759656,100.249897-111.668669c73.621018-105.892703,90.851469-113.593991,148.808441-67.386266c29.761688,23.103863,42.292925,25.029184,67.3554,5.775966c40.726521-30.80515,112.781134,3.850644,112.781134,53.909013c1.566405,82.788841,23.49607,84.714163,112.781134,5.775966c100.249897-86.639485,136.277204-94.340772,178.570129-36.581116c32.894497,46.207725,39.160116,36.581116-156.640464,229.113304-48.558544,48.133047-87.71866,92.41545-87.71866,98.191416c0,7.701288,50.124949,67.386266,109.648325,132.84721c125.312371,136.697854,151.94125,182.905579,125.312371,221.412016-20.36326,28.879828-84.585851,48.133047-126.878776,34.655794-54.824162-17.327897-31.328093-42.357081,46.992139-48.133047l76.753827-5.775966-155.074059-163.65236c-84.585851-90.490128-155.074059-167.503004-153.507655-173.278969c1.566405-17.327897,264.722384-269.545063,280.386431-269.545063c9.398428,0,15.664046-13.477253,15.664046-28.879828c0-53.909013-43.85933-28.879828-169.171701,96.266094-68.921804,69.311588-126.878776,125.145922-130.011585,125.145922s-3.132809-55.834335-1.566405-125.145922l6.265619-125.145922h-48.558544-48.558544v313.827467c0,217.561373-6.265619,321.528754-18.796856,336.931329-14.097642,17.327897-3.132809,23.103863,48.558544,23.103863h67.3554l-6.265619-134.772532c-3.132809-75.087553-3.132809-134.772532,0-134.772532c17.230451,0,191.101366,202.158797,191.101366,221.412016c0,13.477253-14.097642,28.879828-29.761688,34.655794-21.929665,5.775966-32.894497-3.850644-39.160116-32.730472-4.699214-21.178541-23.49607-51.983691-42.292925-65.460944-17.230451-15.402575-28.195284-17.327897-21.929665-5.775966c4.699214,11.551931,3.132809,21.178541-6.265619,21.178541-7.832023,0-17.230451,23.103863-20.36326,51.983691-4.699214,61.6103-62.656186,96.266094-125.312371,77.012875-37.593711-11.551931-37.593711-15.402575-37.593711-227.187982c1.566405-117.444635-3.132809-217.561373-7.832023-221.412016-6.265619-3.850644-37.593711,84.714163-68.921804,196.382832-76.753827,261.843776-126.878776,315.752788-238.093505,254.142488-42.292925-25.029184-40.726521-25.029184,40.726521-34.655794l84.585851-9.626609l73.621018-259.918454c40.726521-142.473819,78.320232-292.648926,84.585851-331.155363c9.398428-67.386266,7.832023-73.162231-26.628879-73.162231-26.628879,0-43.85933,19.253219-62.656186,67.386266-29.761688,78.938197-86.152255,127.071244-164.472487,142.473819-29.761688,5.775966-57.956972,23.103863-61.089781,34.655794-7.832023,26.954506,56.390567,17.327897,156.640464-25.029184c31.328093-13.477253,57.956972-23.103863,57.956972-21.178541s-26.628879,88.564807-59.523376,192.532188l-61.089781,190.606866-86.152255-209.860085c-145.675632-344.632617-156.640464-365.811157-194.234175-354.259226-29.761688,11.551931-21.929665,32.730472,103.382706,309.976823c75.187423,163.65236,133.144394,304.200857,130.011585,313.827467-15.664046,34.655794-48.558544,7.701288-72.054613-57.759656-45.425735-130.921888-183.269343-438.973389-192.667771-433.197423-6.265619,1.925322-9.398428,88.564807-9.398428,192.532188c1.566405,219.486694-15.664046,329.230042-53.257758,363.885835-40.726521,36.581116-61.089781,30.80515-112.781134-32.730472l-48.558544-57.759656-32.894497,51.983691c-28.195284,44.282403-43.85933,51.983691-108.08192,50.058369-42.292925,0-89.285065-11.551931-104.949111-23.103863-23.49607-15.402575-9.398428-19.253219,67.3554-21.178541c112.781134,0,104.949111,13.477253,209.898222-306.126179l61.089781-184.830901-1.566405,115.519313c0,63.535622-4.699214,173.278969-12.531237,246.441201l-10.964832,128.996566h42.292925c42.292925,0,42.292925-3.850644,53.257758-144.399141c6.265619-78.938197,6.265619-227.187982,0-327.30472l-10.964832-182.905579h-48.558544c-48.558544,0-50.124949,3.850644-76.753827,140.548497-15.664046,75.087553-57.956972,211.785407-93.984278,302.275535l-67.3554,163.65236-7.832023-308.051501c-6.265619-275.321029-10.964832-308.051501-34.460902-309.976823-25.062474-3.850644-28.195284,23.103863-28.195284,300.350213c0,248.366523-4.699214,308.051501-23.49607,327.30472-32.894497,32.730472-42.292925,15.402575-26.628879-40.431759c6.265619-25.029184,12.531237-59.684978,10.964832-75.087553s-4.699214-80.863519-4.699214-144.399141c-1.566405-69.311588-9.398428-105.892703-17.230451-96.266094-7.832023,11.551931-40.726521,102.04206-72.054613,202.158797s-64.22259,192.532188-75.187423,204.084119c-31.328093,36.581116-109.648325,48.133047-151.94125,21.178541Zm130.011585-65.460944c4.699214-19.253219,37.593711-132.84721,72.054613-254.142488c72.054613-242.590557,97.117088-363.885835,81.453041-377.363089-21.929665-15.402575-79.886637,13.477253-79.886637,42.357081c0,50.058369-87.71866,138.623175-162.906083,161.727038-39.160116,11.551931-76.753827,28.879828-81.453041,38.506438-14.097642,28.879828,57.956972,19.253219,147.242036-19.253219c73.621018-30.80515,81.453041-32.730472,72.054613-3.850644-6.265619,17.327897-32.894497,102.04206-59.523376,188.681544-46.992139,155.951072-64.22259,186.756222-75.187423,134.772532-3.132809-15.402575-53.257758-140.548497-114.347539-279.171673-90.851469-211.785407-114.347539-254.142488-144.109227-254.142488-20.36326,0-36.027307,3.850644-36.027307,7.701288s59.523376,140.548497,133.144394,302.275535c122.179562,269.545063,131.57799,298.424892,106.515516,319.603432-21.929665,21.178541-14.097642,25.029184,53.257758,25.029184c62.656186,0,81.453041-7.701288,87.71866-32.730472Zm-50.124949-290.723604c10.964832-36.581116,7.832023-42.357081-25.062474-42.357081-40.726521,0-45.425735,13.477253-29.761688,67.386266c12.531237,40.431759,39.160116,28.879828,54.824162-25.029184Zm1047.924705-25.029184c0-38.506438-37.593711-50.058369-54.824162-17.327897-6.265619,11.551931-6.265619,32.730472-1.566405,48.133047c10.964832,38.506438,56.390567,13.477253,56.390567-30.80515Z" transform="translate(-271.15509 22.93811)" fill="#eecb74" stroke="url(#er4xeW93CUY3-stroke)"/><path d="M2121.639641,1726.354019c-52.61667-40.492861-34.200836-198.415017,42.093336-360.386459c65.770838-135.651083,65.770838-238.907877-2.630834-285.474667-28.939169-20.24643-52.61667-46.56679-52.61667-58.714648c0-16.197144,7.892501-16.197144,21.046668,0c10.523334,14.172501,42.093336,26.320359,71.032505,32.394288c47.355003,6.073929,52.61667,22.271073,49.985837,147.798941-2.630834,87.05965-23.677502,190.316445-60.509171,267.25288-28.939169,68.837863-55.247504,153.87287-55.247504,188.291802c0,60.739291,0,60.739291,147.326677,60.739291h144.695843l-18.415835-95.158222c-7.892501-54.665362-39.462503-139.700369-68.401671-190.316445-36.831669-68.837863-47.355003-129.577154-42.093336-232.833948c7.892501-139.700369,7.892501-139.700369,86.817506-145.774298s78.925005-6.073929,23.677502,30.369645c-86.817506,56.690005-92.079173,97.182865-34.200836,234.858591c68.401671,159.946799,102.602507,358.361816,71.032505,404.928606s-263.083351,48.591433-323.592522,2.024643Z" transform="translate(517.00391 15.98315)" fill="#eecb74"/><path d="M2130,1436.689922c0-30.232558,16.285714-34.263566,81.428571-28.217054c92.285714,10.077519,105.857143-20.155039,40.714286-104.806202l-38-50.387597-40.714286,70.542636c-32.571429,54.418605-40.714286,60.465116-43.428571,28.217054c0-24.186047,21.714286-64.496124,48.857143-88.682171L2227.714286,1217l46.142857,72.55814C2298.285714,1327.852713,2320,1386.302326,2320,1418.550388C2320,1472.968992,2311.857143,1477,2225,1477c-73.285714-2.015504-95-10.077519-95-40.310078Z" transform="translate(571.76831 229.29968)" fill="#eecb74" fill-rule="evenodd" stroke="#f8e0a5"/><path d="M2193.663576,1040.019753L2115,1019.618289l78.663576-20.401463c44.051603-8.743484,122.715179-5.82899,173.059867,8.743484c53.491232,14.572474,69.223947,29.144948,40.90506,29.144948-28.318887,2.914495-69.223947,8.743484-94.396291,14.572474-22.025801,5.82899-75.517033,2.914495-119.568636-11.657979Z" transform="translate(526.76831 11.98352)" fill="#eecb74"/><path d="M1908.003521,1258.771781c-32.974172-18.987679-65.948343-46.112934-73.706972-62.388088-5.818971-13.562628-21.336229-27.125255-31.034515-27.125255-11.637943,0-15.517257,10.850102-9.698286,24.41273s-1.939657,37.975358-17.456914,56.963036c-34.913829,40.687883-126.077715-2.712526-126.077715-59.675562c0-73.23819-131.896687-230.564671-137.715658-162.751533c0,10.850102-3.879314,54.250511-5.818971,97.65092-1.939657,40.687883-19.396572,92.225869-40.7328,113.926073-75.646629,78.663241-271.552002,24.41273-221.120916-59.675562c13.5776-24.41273,17.456914-78.663241,9.698286-149.188905s-3.879314-124.776175,9.698286-149.188905c27.1552-46.112934,139.655315-48.82546,193.965716-8.137577c29.094857,21.700204,46.551772,18.987679,67.888-5.425051s38.793143-24.41273,77.586286,0s65.948343,24.41273,114.439772,0c54.3104-29.837781,69.827658-27.125255,96.982858,13.562628c31.034515,43.400409,36.853486,43.400409,67.888,2.712526c27.1552-35.262832,44.612115-37.975358,73.706972-16.275153s50.431086,13.562628,104.741486-40.687883c96.982858-97.65092,207.543316-113.926073,256.034745-40.687883c21.336229,32.550307,27.1552,56.963036,15.517257,56.963036s-27.1552-10.850102-32.974172-27.125255c-36.853486-84.088292-246.336459,48.82546-300.646859,189.876788-19.396572,48.82546-15.517257,59.675562,19.396572,73.23819c48.491429,18.987679,44.612115,97.65092-3.879314,111.213547-25.215543,5.425051-34.913829-16.275153-44.612115-94.938394-13.5776-119.351124-46.551772-238.702248-60.129372-219.714569-3.879314,8.137577,1.939657,78.663241,13.5776,154.613956c21.336229,138.338803,7.758629,238.702248-15.517257,116.638598-11.637943-65.100613-44.612115-81.375766-44.612115-24.41273c0,84.088292,112.500115,132.913752,201.724344,84.088292c44.612115-24.41273,38.793143-116.638598-9.698286-141.051328-36.853486-21.700204-34.913829-27.125255,38.793143-122.06365c81.465601-103.075971,155.172573-127.488701,215.301944-73.23819c15.517257,13.562628,21.336229,27.125255,9.698286,29.837781-176.508801,18.987679-207.543316,48.82546-192.026059,184.451737c7.758629,75.950715,1.939657,108.501022-25.215543,141.051328-50.431086,62.388088-122.198401,73.23819-193.965716,32.550307Zm-159.051887-146.476379c-5.818971-119.351124,0-138.338803,34.913829-151.901431c46.551772-16.275153,34.913829-62.388088-15.517257-62.388088-19.396572,0-40.7328,24.41273-46.551772,54.250511s-23.275886,54.250511-40.7328,54.250511c-15.517257,0-38.793143-24.41273-50.431086-54.250511-23.275886-62.388088-96.982858-73.23819-96.982858-16.275153c0,24.41273,13.5776,32.550307,38.793143,24.41273c23.275886-8.137577,38.793143,0,38.793143,16.275153c0,18.987679,19.396572,59.675562,40.7328,92.225869c32.974172,46.112934,40.7328,48.82546,31.034515,13.562628-7.758629-27.125255-3.879314-48.82546,7.758629-48.82546c13.5776,0,17.456914,24.41273,11.637943,59.675562-11.637943,56.963036,13.5776,157.326482,40.7328,157.326482c7.758629,0,9.698286-62.388088,5.818971-138.338803Zm-292.888231,70.525664c19.396572-32.550307,19.396572-51.537985,3.879314-73.23819s-15.517257-40.687883-1.939657-65.100613c40.7328-67.813139-13.5776-146.476379-100.862172-146.476379s-83.405258-13.562628-42.672457,238.702248c7.758629,46.112934,3.879314,56.963036-21.336229,43.400409-17.456914-8.137577-31.034515-2.712526-31.034515,13.562628c0,46.112934,164.870858,37.975358,193.965716-10.850102Z" transform="translate(175.026-316.5343)" fill="#eecb74"/><path d="M1299.413945,963.378853c-30.445301-126.062629-6.08906-171.65975,70.024191-144.837914c54.801541,18.775285,48.712481,112.651711-9.13359,104.60516-63.935131-13.410918-39.578891,37.55057,27.400771,53.643672c73.068722,16.093102,63.935131,80.465508-12.17812,93.876426-33.489831,5.364367-54.801541-24.139652-76.113252-107.287344Z" transform="translate(193.40649-184.83093)" fill="#eecb74"/><path d="M2554.887776,911.930832c-3.807615-4.32534-173.246493-7.2089-376.953908-8.650681s-388.376754-7.2089-409.318637-12.976021c-20.941884-7.2089,173.246493-12.976021,443.587174-12.976021c306.513026-1.44178,479.759519-7.2089,479.759519-15.859581s-169.438878-14.417801-470.240481-14.417801c-257.014028,0-464.529058-2.88356-460.721443-5.76712s201.803607-10.092461,439.779559-14.417801C2640.559118,816.773347,2711,822.540467,2711,868.67743c0,11.534241-22.845691,24.510261-51.402806,30.277382-30.460922,4.32534-62.825651,10.092461-76.152305,12.976021-11.422846,2.88356-24.749499,2.88356-28.557114,0Z" transform="translate(560.76831-87.73017)" fill="#eecb74"/><path d="M737.512401,899.906334c-27.620756-6.617459,169.670361-11.580552,439.959193-13.234917c309.747055-1.654365,487.309061-8.271823,487.309061-18.198011s-175.589095-16.543646-487.309061-16.543646c-266.343009,0-481.390327-3.308729-475.471594-8.271823c15.783289-13.234917,875.972563-29.778563,933.186987-18.198011c39.458224,8.271823,51.295691,19.852376,45.376957,47.976574-5.918734,36.396022-7.891645,36.396022-449.823748,38.050386-244.640986,1.654365-465.607038-3.308729-493.227794-11.580552Z" transform="translate(-280.23169-95.46936)" fill="#eecb74"/></g></svg>
